<svg id="express_art_layer" data-name="express art layer" xmlns="http://www.w3.org/2000/svg" viewBox="0 0 61.06 26.65"><defs><style>.cls-1{fill:none;stroke:#fff;stroke-width:0.25px;}</style></defs><path class="cls-1" d="M574.84,236.56a9.11,9.11,0,0,0-2,.62.82.82,0,0,1-1-.56c-.09-.74,0-2.1-.08-2.77-.13-.18.06-.66,0-.84a7.52,7.52,0,0,0,0-1.4c0-.8-.28-1.52.64-2a5.3,5.3,0,0,0,2.1,0,3.06,3.06,0,0,1,.85,0c.36.19.31.84-.18,1.2a10.64,10.64,0,0,1-2.15.37c0,.26,0,1.19.06,1.45.35-.05,1.09,0,1.38-.27.41,0,.71-.06,1,.36.08,1-.51.8-.93,1.05-.35,0-1,.18-1.38.22a8.94,8.94,0,0,0,.06,1.35c.66-.14,1.35-.33,2.06-.47.43,0,.55.35.76.69C575.67,236.25,575.3,236.56,574.84,236.56Z" transform="translate(-550.53 -212.78)"/><path class="cls-1" d="M580.5,238.91a.56.56,0,0,1-.58-.18,1.79,1.79,0,0,1-.42-.7c-.15-.37-.85-1.75-.9-1.84-.21.48-.36,1.09-.55,1.54a1.84,1.84,0,0,1-.32.9l-.45.16.08,0c-.45.18-.8.28-1-.44a6.17,6.17,0,0,1,.57-1.73c.31-.76.58-1.41.9-2.17a2.74,2.74,0,0,1-.36-.65,8.75,8.75,0,0,1-1.23-2.32,1,1,0,0,1,.44-.63,1.22,1.22,0,0,1,.56-.06c.52.44.75,1.34,1.12,1.9l.12.2a3.14,3.14,0,0,0,.39-1.2c0-.21.22-.34.26-.54a1.05,1.05,0,0,1,.18-.54,1.28,1.28,0,0,1,.4-.32c.08,0,.21,0,.3-.06.29,0,.47.49.47.49a3.12,3.12,0,0,1-.15,1,1.21,1.21,0,0,1-.38.72c-.08.29-.32.6-.27.91a9.36,9.36,0,0,1-.46,1.26,6.55,6.55,0,0,0,.69,1.19c.07.44.4.53.45,1,0,.06.69.86.63,1.51A.76.76,0,0,1,580.5,238.91Z" transform="translate(-550.53 -212.78)"/><path class="cls-1" d="M583.12,234.86a1.54,1.54,0,0,1,0,.74,4.5,4.5,0,0,0,.08,1.06,1.55,1.55,0,0,0,0,.52,3.21,3.21,0,0,1,0,.88c0,.24,0,.48,0,.69-.13.5-.54.5-.93.54a2,2,0,0,1-.35-1.32l0-.74c0-.52,0-1-.08-1.5-.06-1,0-2.36-.08-3.43,0-.12,0,0,0-.15s0-.08,0-.14a.45.45,0,0,1,0-.3c-.12-.3,0-.69-.17-1a1,1,0,0,1,.76-1c.23,0,.51.06.73-.07a5.31,5.31,0,0,1,2.46.49,1.63,1.63,0,0,1,.68,1.26,1.12,1.12,0,0,1,0,.54C586,233.32,584.58,235,583.12,234.86Zm0-3.73-.07,0a1.36,1.36,0,0,1-.06.6l0,.07s0,.42.09.5a1.12,1.12,0,0,0,0,.63c0,.16,0,.49,0,.62a1,1,0,0,0,.88-.2c.5-.53,1.07-1,.8-1.93A1.74,1.74,0,0,0,583.17,231.13Z" transform="translate(-550.53 -212.78)"/><path class="cls-1" d="M591.38,237.63a.61.61,0,0,1-.94.12c-.13-.26-.31-.56-.49-.87-.28-.46-.9-1.83-1.08-2.22a4.19,4.19,0,0,0,.13,1.62,2.56,2.56,0,0,0,0,.59.82.82,0,0,1-.69,1,.83.83,0,0,1-.52-.27c0-.19-.17-.32-.21-.5s.1-.33.09-.47a17.69,17.69,0,0,1,0-2.4c0-.57-.27-1-.07-1.64a3,3,0,0,1,0-.67,1.2,1.2,0,0,1,0-.33c0-.26-.07-1.14-.06-1.53a.87.87,0,0,1,.58-.86.68.68,0,0,1,.88,0,3.23,3.23,0,0,1,1.73.76,2.13,2.13,0,0,1,.58,1.16,1.91,1.91,0,0,1-.28,1.33,2.92,2.92,0,0,1-.8.64,3,3,0,0,1-.8.21,15.19,15.19,0,0,0,1,1.62,9.94,9.94,0,0,0,.92,1.37c.15.21.47.4.43.78C591.77,237.31,591.62,237.39,591.38,237.63Zm-1.84-7a1.75,1.75,0,0,0-.6-.05,4.82,4.82,0,0,0-.05.92c0,.19.06.53.07.73a1.09,1.09,0,0,0,1-1C590,230.92,589.54,230.65,589.54,230.65Z" transform="translate(-550.53 -212.78)"/><path class="cls-1" d="M595.65,236.56a8.94,8.94,0,0,0-2,.62.83.83,0,0,1-1-.56c-.08-.74,0-2.1-.07-2.77-.13-.18.06-.66,0-.84a8.5,8.5,0,0,0-.05-1.4c0-.8-.29-1.52.64-2a5.3,5.3,0,0,0,2.1,0,3.06,3.06,0,0,1,.85,0c.36.19.31.84-.18,1.2a10.64,10.64,0,0,1-2.15.37c0,.26.05,1.19.06,1.45.35-.05,1.09,0,1.38-.27.41,0,.71-.06,1,.36.07,1-.51.8-.93,1.05-.35,0-1,.18-1.38.22a7.77,7.77,0,0,0,.06,1.35c.66-.14,1.35-.33,2.06-.47.43,0,.55.35.76.69C596.48,236.25,596.1,236.56,595.65,236.56Z" transform="translate(-550.53 -212.78)"/><path class="cls-1" d="M601.24,231.87c-.48-.08-.61,0-1-.48.06-.41-.21-.5-.43-.77-.52,0-.77.55-1,.95-.13.84.27.85.86.86.38,0,.89-.09,1.24.39a1.28,1.28,0,0,1,.54,1.53,2.23,2.23,0,0,1-.33,1.21,2.79,2.79,0,0,1-.9,1,2.1,2.1,0,0,1-1.71-.32,5.11,5.11,0,0,1-.89-.73l-.07-.54a.64.64,0,0,1,.24-.36.62.62,0,0,1,1.05.06,1,1,0,0,0,.89.45.64.64,0,0,0,0,.09,2.35,2.35,0,0,0,.45-.79c.12-.18-.18-.56-.26-.71a.17.17,0,0,0-.18-.07l-.12,0a1.5,1.5,0,0,1-1.11-.15,2.17,2.17,0,0,1-.8-.64,1.89,1.89,0,0,1-.18-1.32,3.9,3.9,0,0,1,.66-1.32,2.08,2.08,0,0,1,1.16-.8,1.58,1.58,0,0,1,1.29.18,2.6,2.6,0,0,1,1,1.28A2.07,2.07,0,0,1,601.24,231.87Z" transform="translate(-550.53 -212.78)"/><path class="cls-1" d="M606.38,231.87c-.48-.08-.62,0-1-.48.06-.41-.2-.5-.43-.77-.51,0-.77.55-1,.95-.13.84.28.85.87.86.38,0,.88-.09,1.23.39a1.27,1.27,0,0,1,.54,1.53,2.31,2.31,0,0,1-.32,1.21,2.89,2.89,0,0,1-.9,1,2.13,2.13,0,0,1-1.72-.32,5.42,5.42,0,0,1-.88-.73l-.08-.54a.64.64,0,0,1,.24-.36.63.63,0,0,1,1.06.06,1,1,0,0,0,.89.45s0,0,0,.09a2.2,2.2,0,0,0,.46-.79c.12-.18-.18-.56-.27-.71a.17.17,0,0,0-.18-.07l-.12,0a1.47,1.47,0,0,1-1.1-.15,2.08,2.08,0,0,1-.8-.64,1.84,1.84,0,0,1-.18-1.32,3.9,3.9,0,0,1,.66-1.32,2,2,0,0,1,1.16-.8,1.56,1.56,0,0,1,1.28.18,2.62,2.62,0,0,1,1,1.28A2.25,2.25,0,0,1,606.38,231.87Z" transform="translate(-550.53 -212.78)"/><path d="M552.45,221.36a4.33,4.33,0,0,1-1-.36,4,4,0,0,1-.89-.58l.74-.92a3.28,3.28,0,0,0,1.07.64,3.78,3.78,0,0,0,1.28.21,2.63,2.63,0,0,0,1.43-.34,1.11,1.11,0,0,0,.51-1h0a1.06,1.06,0,0,0-.23-.71,1.38,1.38,0,0,0-.6-.38,5.87,5.87,0,0,0-.94-.23h-.17a9.91,9.91,0,0,1-1.39-.33,2,2,0,0,1-.92-.68,2.23,2.23,0,0,1-.38-1.39h0a2.47,2.47,0,0,1,.36-1.35,2.24,2.24,0,0,1,1-.85,4.22,4.22,0,0,1,1.64-.29,3.8,3.8,0,0,1,.89.1,4.12,4.12,0,0,1,.88.29,4.89,4.89,0,0,1,.84.5l-.68,1a3.76,3.76,0,0,0-1-.54,2.72,2.72,0,0,0-1-.18,2.3,2.3,0,0,0-1.36.35,1.15,1.15,0,0,0-.48,1h0a1,1,0,0,0,.24.69,1.64,1.64,0,0,0,.63.37,9.81,9.81,0,0,0,1,.25h.22a7.24,7.24,0,0,1,1.29.37,2.17,2.17,0,0,1,.87.7,2.28,2.28,0,0,1,.34,1.33h0a2.38,2.38,0,0,1-.36,1.33,2.32,2.32,0,0,1-1.07.84,4.3,4.3,0,0,1-1.69.29A6.28,6.28,0,0,1,552.45,221.36Z" transform="translate(-550.53 -212.78)"/><path d="M558.33,212.87h1.19v8.52h-1.19Zm.74,3.75h4.73v1.14h-4.73Zm4.1-3.75h1.19v8.52h-1.19Z" transform="translate(-550.53 -212.78)"/><path d="M568.67,212.87h1l3.14,8.52h-1.29l-2.36-6.88-2.36,6.88h-1.29ZM567,218.38h4.48v1.14H567Z" transform="translate(-550.53 -212.78)"/><path d="M574.12,212.86h1.2v8.53h-1.2Zm.52,3.79h2.91a1.08,1.08,0,0,0,.6-.17,1,1,0,0,0,.41-.46,1.6,1.6,0,0,0,.15-.7,1.52,1.52,0,0,0-.15-.69,1.09,1.09,0,0,0-.4-.47,1.13,1.13,0,0,0-.61-.16h-2.91v-1.14h2.86a2.58,2.58,0,0,1,1.3.31,2.18,2.18,0,0,1,.87.86,2.84,2.84,0,0,1,0,2.58,2.21,2.21,0,0,1-.87.87,2.74,2.74,0,0,1-1.3.3h-2.86Zm2.32.87,1.19-.27,2.18,4.14h-1.41Z" transform="translate(-550.53 -212.78)"/><path d="M583.14,221.39H582v-8.52h1.19Z" transform="translate(-550.53 -212.78)"/><path d="M585.25,212.87h1.2v8.52h-1.2Zm.59,0h4.77V214h-4.77Zm0,3.79H590v1.14h-4.13Z" transform="translate(-550.53 -212.78)"/><path d="M562.3,224.79h1.19v8.52H562.3Zm.58,0h4.89v1.14h-4.89Zm0,3.72h4.24v1.14h-4.24Zm0,3.67h4.89v1.13h-4.89Z" transform="translate(-550.53 -212.78)"/><path d="M571.5,228.44l2.13-3.65H575l-2.82,4.61-2.29,3.91h-1.34Zm0,1.13-.18-.29-2.77-4.49h1.34l2.06,3.47.19.32,2.91,4.73h-1.34Z" transform="translate(-550.53 -212.78)"/><path d="M576.39,224.79h1.2v8.52h-1.2Zm.62,4.08h2.72a1.25,1.25,0,0,0,.68-.18,1.17,1.17,0,0,0,.46-.52,1.81,1.81,0,0,0,.16-.76,1.9,1.9,0,0,0-.16-.78,1.29,1.29,0,0,0-.46-.52,1.25,1.25,0,0,0-.68-.18H577v-1.14h2.68a2.64,2.64,0,0,1,1.34.33,2.22,2.22,0,0,1,.9.92,2.75,2.75,0,0,1,.32,1.37,2.71,2.71,0,0,1-.32,1.36,2.22,2.22,0,0,1-.9.92,2.74,2.74,0,0,1-1.34.32H577Z" transform="translate(-550.53 -212.78)"/><path d="M583.75,224.79h1.19v8.52h-1.19Zm.52,3.78h2.9a1.13,1.13,0,0,0,.61-.16,1.18,1.18,0,0,0,.41-.47,1.67,1.67,0,0,0,.14-.69,1.75,1.75,0,0,0-.14-.7,1.08,1.08,0,0,0-.41-.46,1.09,1.09,0,0,0-.61-.17h-2.9v-1.13h2.86a2.74,2.74,0,0,1,1.3.3,2.12,2.12,0,0,1,.86.87,2.84,2.84,0,0,1,0,2.58,2.18,2.18,0,0,1-.87.86,2.57,2.57,0,0,1-1.29.31h-2.86Zm2.32.88,1.19-.27,2.18,4.13h-1.42Z" transform="translate(-550.53 -212.78)"/><path d="M591.57,224.79h1.19v8.52h-1.19Zm.58,0H597v1.14h-4.89Zm0,3.72h4.25v1.14h-4.25Zm0,3.67H597v1.13h-4.89Z" transform="translate(-550.53 -212.78)"/><path d="M600.14,233.28a3.91,3.91,0,0,1-1-.35,4.31,4.31,0,0,1-.9-.58l.75-.92a3.32,3.32,0,0,0,1.07.63,3.49,3.49,0,0,0,1.27.22,2.55,2.55,0,0,0,1.44-.35,1.1,1.1,0,0,0,.51-1h0a1.06,1.06,0,0,0-.23-.71,1.56,1.56,0,0,0-.6-.39,7.39,7.39,0,0,0-.95-.23h-.07l-.09,0a7.51,7.51,0,0,1-1.39-.33,1.88,1.88,0,0,1-.92-.67,2.25,2.25,0,0,1-.38-1.39h0a2.51,2.51,0,0,1,.35-1.35,2.21,2.21,0,0,1,1-.85,4,4,0,0,1,1.63-.29,3.82,3.82,0,0,1,.9.1,3.87,3.87,0,0,1,.87.29,5,5,0,0,1,.85.5l-.68,1a3.93,3.93,0,0,0-1-.54,2.73,2.73,0,0,0-1-.18,2.28,2.28,0,0,0-1.35.35,1.13,1.13,0,0,0-.49,1h0a.9.9,0,0,0,.25.69,1.51,1.51,0,0,0,.62.38,8.29,8.29,0,0,0,1,.24h.15l.06,0a6.78,6.78,0,0,1,1.29.37,2,2,0,0,1,.87.7,2.22,2.22,0,0,1,.35,1.32h0a2.34,2.34,0,0,1-.37,1.34,2.23,2.23,0,0,1-1.07.84,4.45,4.45,0,0,1-1.69.29A5.36,5.36,0,0,1,600.14,233.28Z" transform="translate(-550.53 -212.78)"/><path d="M607.29,233.28a3.91,3.91,0,0,1-1-.35,4.25,4.25,0,0,1-.89-.58l.74-.92a3.43,3.43,0,0,0,1.07.63,3.59,3.59,0,0,0,1.28.22,2.54,2.54,0,0,0,1.43-.35,1.1,1.1,0,0,0,.51-1h0a1.06,1.06,0,0,0-.23-.71,1.42,1.42,0,0,0-.6-.39,7.19,7.19,0,0,0-.94-.23h-.08l-.09,0a7.72,7.72,0,0,1-1.39-.33,1.93,1.93,0,0,1-.92-.67,2.25,2.25,0,0,1-.38-1.39h0a2.43,2.43,0,0,1,.36-1.35,2.18,2.18,0,0,1,1-.85,4,4,0,0,1,1.64-.29,3.94,3.94,0,0,1,.9.1,4.23,4.23,0,0,1,.87.29,5,5,0,0,1,.85.5l-.68,1a4.12,4.12,0,0,0-1-.54,2.81,2.81,0,0,0-1-.18,2.3,2.3,0,0,0-1.36.35,1.15,1.15,0,0,0-.48,1h0a.9.9,0,0,0,.25.69,1.45,1.45,0,0,0,.62.38,8.07,8.07,0,0,0,1,.24H609l.07,0a7.24,7.24,0,0,1,1.29.37,2.17,2.17,0,0,1,.87.7,2.23,2.23,0,0,1,.34,1.32h0a2.42,2.42,0,0,1-.36,1.34,2.32,2.32,0,0,1-1.07.84,4.49,4.49,0,0,1-1.69.29A5.52,5.52,0,0,1,607.29,233.28Z" transform="translate(-550.53 -212.78)"/></svg>